<?xml version="1.0" standalone="no"?><!DOCTYPE svg PUBLIC "-//W3C//DTD SVG 1.1//EN" "http://www.w3.org/Graphics/SVG/1.1/DTD/svg11.dtd"><svg t="1579346800392" class="icon" viewBox="0 0 1024 1024" version="1.1" xmlns="http://www.w3.org/2000/svg" p-id="3963" xmlns:xlink="http://www.w3.org/1999/xlink" width="200" height="200"><defs><style type="text/css"></style></defs><path d="M748.465863 905.767068c-24.674699 11.309237-88.417671 33.927711-215.903614 33.927711-128.514056 0-191.228916-21.590361-215.903614-32.899598L237.493976 147.02008c-3.084337-30.843373 19.534137-59.630522 51.405622-62.714859h482.184739c31.871486 0 57.574297 25.702811 57.574298 56.546185v6.168674L748.465863 905.767068zM199.453815 0C167.582329 0 141.879518 25.702811 141.879518 56.546185v6.168674l93.558233 889.31727 12.337349 10.281124c11.309237 10.281124 80.192771 61.686747 284.787149 61.686747s273.477912-50.37751 284.787149-60.658635l12.337349-10.281124L923.24498 62.714859c3.084337-30.843373-19.534137-59.630522-51.405623-62.714859H199.453815z" fill="#D8D8D8" p-id="3964"></path><path d="M367.036145 856.417671s57.574297 30.843373 154.216867 30.843373 183.004016-30.843373 183.004016-30.843373l52.433735-521.253012c-18.506024 1.028112-37.012048 2.056225-54.48996 2.056225-118.232932-3.084337-262.168675-35.983936-389.654618-29.815262l54.48996 549.012049z" fill="#84CCFF" p-id="3965"></path></svg>