<?xml version="1.0" standalone="no"?><!DOCTYPE svg PUBLIC "-//W3C//DTD SVG 1.1//EN" "http://www.w3.org/Graphics/SVG/1.1/DTD/svg11.dtd"><svg t="1578040783151" class="icon" viewBox="0 0 1024 1024" version="1.1" xmlns="http://www.w3.org/2000/svg" p-id="4690" xmlns:xlink="http://www.w3.org/1999/xlink" width="200" height="200"><defs><style type="text/css"></style></defs><path d="M512 507.345455c-116.363636 0-211.781818-95.418182-211.781818-211.781819s95.418182-209.454545 211.781818-209.454545 211.781818 95.418182 211.781818 211.781818-95.418182 209.454545-211.781818 209.454546z m0-374.69091c-90.763636 0-162.909091 74.472727-162.909091 162.909091s74.472727 162.909091 162.909091 162.909091 162.909091-74.472727 162.909091-162.909091-72.145455-162.909091-162.909091-162.909091z" p-id="4691" fill="#f36838"></path><path d="M926.254545 937.890909H97.745455l-2.327273-20.945454c0-13.963636-2.327273-25.6-2.327273-37.236364 0-230.4 188.509091-418.909091 418.909091-418.909091s418.909091 188.509091 418.909091 418.909091c0 11.636364 0 23.272727-2.327273 37.236364l-2.327273 20.945454z m-784.290909-46.545454h740.072728v-11.636364c0-204.8-165.236364-370.036364-370.036364-370.036364S141.963636 674.909091 141.963636 879.709091v11.636364z" p-id="4692" fill="#f36838"></path></svg>